<mxfile host="app.diagrams.net" modified="2023-10-21T21:46:24.235Z" agent="Mozilla/5.0 (Windows NT 10.0; Win64; x64) AppleWebKit/537.36 (KHTML, like Gecko) Chrome/118.0.0.0 Safari/537.36" etag="y0ejk-atmKMVkhUAAVl7" version="22.0.6" type="github">
  <diagram name="Page-1" id="Xf0QJX8aAJHHUgm_mSM7">
    <mxGraphModel dx="1434" dy="790" grid="1" gridSize="10" guides="1" tooltips="1" connect="1" arrows="1" fold="1" page="1" pageScale="1" pageWidth="850" pageHeight="1100" math="0" shadow="0">
      <root>
        <mxCell id="0" />
        <mxCell id="1" parent="0" />
        <mxCell id="9YnkPMnMuftcWYB37WrE-14" value="&amp;nbsp;Name" style="whiteSpace=wrap;html=1;align=center;" parent="1" vertex="1">
          <mxGeometry x="140" y="70" width="100" height="40" as="geometry" />
        </mxCell>
        <mxCell id="9YnkPMnMuftcWYB37WrE-21" value="ID" style="whiteSpace=wrap;html=1;align=center;" parent="1" vertex="1">
          <mxGeometry x="40" y="70" width="100" height="40" as="geometry" />
        </mxCell>
        <mxCell id="9YnkPMnMuftcWYB37WrE-22" value="name" style="whiteSpace=wrap;html=1;align=center;" parent="1" vertex="1">
          <mxGeometry x="240" y="70" width="100" height="40" as="geometry" />
        </mxCell>
        <mxCell id="9YnkPMnMuftcWYB37WrE-23" value="USERS" style="text;strokeColor=none;fillColor=none;spacingLeft=4;spacingRight=4;overflow=hidden;rotatable=0;points=[[0,0.5],[1,0.5]];portConstraint=eastwest;fontSize=20;whiteSpace=wrap;html=1;" parent="1" vertex="1">
          <mxGeometry x="40" y="40" width="80" height="30" as="geometry" />
        </mxCell>
        <mxCell id="RUmOgt_5cPqZvQCPgJx--6" value="phone" style="whiteSpace=wrap;html=1;align=center;" vertex="1" parent="1">
          <mxGeometry x="340" y="70" width="100" height="40" as="geometry" />
        </mxCell>
        <mxCell id="RUmOgt_5cPqZvQCPgJx--7" value="address" style="whiteSpace=wrap;html=1;align=center;" vertex="1" parent="1">
          <mxGeometry x="440" y="70" width="100" height="40" as="geometry" />
        </mxCell>
      </root>
    </mxGraphModel>
  </diagram>
</mxfile>
